{
	"asset":{
		"generator":"Khronos glTF Blender I/O v4.1.63",
		"version":"2.0"
	},
	"scene":0,
	"scenes":[
		{
			"name":"Scene",
			"nodes":[
				2
			]
		}
	],
	"nodes":[
		{
			"name":"Bone",
			"rotation":[
				0.7071067690849304,
				0,
				0,
				0.7071067690849304
			]
		},
		{
			"mesh":0,
			"name":"laser-beam",
			"skin":0
		},
		{
			"children":[
				1,
				0
			],
			"name":"Armature",
			"rotation":[
				-0.7071068286895752,
				0,
				0,
				0.7071068286895752
			]
		}
	],
	"animations":[
		{
			"channels":[
				{
					"sampler":0,
					"target":{
						"node":0,
						"path":"translation"
					}
				},
				{
					"sampler":1,
					"target":{
						"node":0,
						"path":"rotation"
					}
				},
				{
					"sampler":2,
					"target":{
						"node":0,
						"path":"scale"
					}
				}
			],
			"name":"laser-spin",
			"samplers":[
				{
					"input":7,
					"interpolation":"STEP",
					"output":8
				},
				{
					"input":9,
					"interpolation":"LINEAR",
					"output":10
				},
				{
					"input":7,
					"interpolation":"STEP",
					"output":11
				}
			]
		}
	],
	"materials":[
		{
			"doubleSided":true,
			"name":"Material.001",
			"pbrMetallicRoughness":{
				"baseColorTexture":{
					"index":0
				},
				"metallicFactor":0,
				"roughnessFactor":0.5
			}
		}
	],
	"meshes":[
		{
			"name":"laser-beam-mesh",
			"primitives":[
				{
					"attributes":{
						"POSITION":0,
						"NORMAL":1,
						"TEXCOORD_0":2,
						"JOINTS_0":3,
						"WEIGHTS_0":4
					},
					"indices":5,
					"material":0
				}
			]
		}
	],
	"textures":[
		{
			"sampler":0,
			"source":0
		}
	],
	"images":[
		{
			"mimeType":"image/png",
			"name":"beam-color",
			"uri":"beam-color.png"
		}
	],
	"skins":[
		{
			"inverseBindMatrices":6,
			"joints":[
				0
			],
			"name":"Armature"
		}
	],
	"accessors":[
		{
			"bufferView":0,
			"componentType":5126,
			"count":1340,
			"max":[
				0.4114087224006653,
				24.583974838256836,
				0.4114086627960205
			],
			"min":[
				-0.4114087224006653,
				0.0068525816313922405,
				-0.4114087224006653
			],
			"type":"VEC3"
		},
		{
			"bufferView":1,
			"componentType":5126,
			"count":1340,
			"type":"VEC3"
		},
		{
			"bufferView":2,
			"componentType":5126,
			"count":1340,
			"type":"VEC2"
		},
		{
			"bufferView":3,
			"componentType":5121,
			"count":1340,
			"type":"VEC4"
		},
		{
			"bufferView":4,
			"componentType":5126,
			"count":1340,
			"type":"VEC4"
		},
		{
			"bufferView":5,
			"componentType":5123,
			"count":2286,
			"type":"SCALAR"
		},
		{
			"bufferView":6,
			"componentType":5126,
			"count":1,
			"type":"MAT4"
		},
		{
			"bufferView":7,
			"componentType":5126,
			"count":2,
			"max":[
				4
			],
			"min":[
				0
			],
			"type":"SCALAR"
		},
		{
			"bufferView":8,
			"componentType":5126,
			"count":2,
			"type":"VEC3"
		},
		{
			"bufferView":9,
			"componentType":5126,
			"count":121,
			"max":[
				4
			],
			"min":[
				0
			],
			"type":"SCALAR"
		},
		{
			"bufferView":10,
			"componentType":5126,
			"count":121,
			"type":"VEC4"
		},
		{
			"bufferView":11,
			"componentType":5126,
			"count":2,
			"type":"VEC3"
		}
	],
	"bufferViews":[
		{
			"buffer":0,
			"byteLength":16080,
			"byteOffset":0,
			"target":34962
		},
		{
			"buffer":0,
			"byteLength":16080,
			"byteOffset":16080,
			"target":34962
		},
		{
			"buffer":0,
			"byteLength":10720,
			"byteOffset":32160,
			"target":34962
		},
		{
			"buffer":0,
			"byteLength":5360,
			"byteOffset":42880,
			"target":34962
		},
		{
			"buffer":0,
			"byteLength":21440,
			"byteOffset":48240,
			"target":34962
		},
		{
			"buffer":0,
			"byteLength":4572,
			"byteOffset":69680,
			"target":34963
		},
		{
			"buffer":0,
			"byteLength":64,
			"byteOffset":74252
		},
		{
			"buffer":0,
			"byteLength":8,
			"byteOffset":74316
		},
		{
			"buffer":0,
			"byteLength":24,
			"byteOffset":74324
		},
		{
			"buffer":0,
			"byteLength":484,
			"byteOffset":74348
		},
		{
			"buffer":0,
			"byteLength":1936,
			"byteOffset":74832
		},
		{
			"buffer":0,
			"byteLength":24,
			"byteOffset":76768
		}
	],
	"samplers":[
		{
			"magFilter":9729,
			"minFilter":9987
		}
	],
	"buffers":[
		{
			"byteLength":76792,
			"uri":"laser-beam-model.bin"
		}
	]
}
