{
	"asset":{
		"generator":"Khronos glTF Blender I/O v4.1.63",
		"version":"2.0"
	},
	"scene":0,
	"scenes":[
		{
			"name":"Scene",
			"nodes":[
				0
			]
		}
	],
	"nodes":[
		{
			"mesh":0,
			"name":"Circle.002",
			"rotation":[
				0,
				-0.9996078014373779,
				0,
				0.028004154562950134
			],
			"scale":[
				4.9993743896484375,
				4.999373912811279,
				4.9993743896484375
			]
		}
	],
	"materials":[
		{
			"doubleSided":true,
			"name":"Material.001",
			"pbrMetallicRoughness":{
				"baseColorTexture":{
					"index":0
				},
				"metallicFactor":0,
				"roughnessFactor":0.5
			}
		}
	],
	"meshes":[
		{
			"extras":{
				"targetNames":[
					"Key 1"
				]
			},
			"name":"Circle.006",
			"primitives":[
				{
					"attributes":{
						"POSITION":0,
						"NORMAL":1,
						"TEXCOORD_0":2
					},
					"indices":3,
					"material":0,
					"targets":[
						{
							"POSITION":4,
							"NORMAL":5
						}
					]
				}
			],
			"weights":[
				1
			]
		}
	],
	"textures":[
		{
			"sampler":0,
			"source":0
		}
	],
	"images":[
		{
			"mimeType":"image/png",
			"name":"swipe-color",
			"uri":"swipe-color.png"
		}
	],
	"accessors":[
		{
			"bufferView":0,
			"componentType":5126,
			"count":657,
			"max":[
				0.5337012410163879,
				0.13126429915428162,
				-0.1360587626695633
			],
			"min":[
				-0.5206621885299683,
				0,
				-1.2744402885437012
			],
			"type":"VEC3"
		},
		{
			"bufferView":1,
			"componentType":5126,
			"count":657,
			"type":"VEC3"
		},
		{
			"bufferView":2,
			"componentType":5126,
			"count":657,
			"type":"VEC2"
		},
		{
			"bufferView":3,
			"componentType":5123,
			"count":939,
			"type":"SCALAR"
		},
		{
			"componentType":5126,
			"count":657,
			"max":[
				0,
				0,
				0
			],
			"min":[
				0,
				0,
				0
			],
			"sparse":{
				"count":1,
				"indices":{
					"bufferView":4,
					"componentType":5121
				},
				"values":{
					"bufferView":5
				}
			},
			"type":"VEC3"
		},
		{
			"bufferView":6,
			"componentType":5126,
			"count":657,
			"type":"VEC3"
		}
	],
	"bufferViews":[
		{
			"buffer":0,
			"byteLength":7884,
			"byteOffset":0,
			"target":34962
		},
		{
			"buffer":0,
			"byteLength":7884,
			"byteOffset":7884,
			"target":34962
		},
		{
			"buffer":0,
			"byteLength":5256,
			"byteOffset":15768,
			"target":34962
		},
		{
			"buffer":0,
			"byteLength":1878,
			"byteOffset":21024,
			"target":34963
		},
		{
			"buffer":0,
			"byteLength":1,
			"byteOffset":22904
		},
		{
			"buffer":0,
			"byteLength":12,
			"byteOffset":22908
		},
		{
			"buffer":0,
			"byteLength":7884,
			"byteOffset":22920,
			"target":34962
		}
	],
	"samplers":[
		{
			"magFilter":9729,
			"minFilter":9987
		}
	],
	"buffers":[
		{
			"byteLength":30804,
			"uri":"swipe-attack.bin"
		}
	]
}
