{
	"asset":{
		"generator":"Khronos glTF Blender I/O v4.0.44",
		"version":"2.0"
	},
	"scene":0,
	"scenes":[
		{
			"name":"Scene",
			"nodes":[
				0
			]
		}
	],
	"nodes":[
		{
			"mesh":0,
			"name":"bear-sp22",
			"scale":[
				20.772268295288086,
				20.772268295288086,
				20.772268295288086
			]
		}
	],
	"materials":[
		{
			"doubleSided":true,
			"name":"TCom_SolarCells",
			"pbrMetallicRoughness":{
				"baseColorTexture":{
					"index":0
				}
			}
		}
	],
	"meshes":[
		{
			"name":"bear-sp22",
			"primitives":[
				{
					"attributes":{
						"POSITION":0,
						"NORMAL":1,
						"TEXCOORD_0":2
					},
					"indices":3,
					"material":0
				}
			]
		}
	],
	"textures":[
		{
			"sampler":0,
			"source":0
		}
	],
	"images":[
		{
			"mimeType":"image/png",
			"name":"Bear",
			"uri":"Bear.png"
		}
	],
	"accessors":[
		{
			"bufferView":0,
			"componentType":5126,
			"count":5207,
			"max":[
				5.818563938140869,
				17.667251586914062,
				6.985897064208984
			],
			"min":[
				-8.345017433166504,
				-0.24733999371528625,
				-3.6699209213256836
			],
			"type":"VEC3"
		},
		{
			"bufferView":1,
			"componentType":5126,
			"count":5207,
			"type":"VEC3"
		},
		{
			"bufferView":2,
			"componentType":5126,
			"count":5207,
			"type":"VEC2"
		},
		{
			"bufferView":3,
			"componentType":5123,
			"count":14520,
			"type":"SCALAR"
		}
	],
	"bufferViews":[
		{
			"buffer":0,
			"byteLength":62484,
			"byteOffset":0,
			"target":34962
		},
		{
			"buffer":0,
			"byteLength":62484,
			"byteOffset":62484,
			"target":34962
		},
		{
			"buffer":0,
			"byteLength":41656,
			"byteOffset":124968,
			"target":34962
		},
		{
			"buffer":0,
			"byteLength":29040,
			"byteOffset":166624,
			"target":34963
		}
	],
	"samplers":[
		{
			"magFilter":9729,
			"minFilter":9987
		}
	],
	"buffers":[
		{
			"byteLength":195664,
			"uri":"bear-3.bin"
		}
	]
}
