{
	"asset":{
		"generator":"Khronos glTF Blender I/O v4.0.44",
		"version":"2.0"
	},
	"scene":0,
	"scenes":[
		{
			"name":"Scene",
			"nodes":[
				0
			]
		}
	],
	"nodes":[
		{
			"mesh":0,
			"name":"Counter",
			"rotation":[
				0,
				0.0015587721718475223,
				0,
				1
			],
			"scale":[
				3.4424989223480225,
				3.4424991607666016,
				3.4424989223480225
			],
			"translation":[
				-0.0004863415379077196,
				0.22865647077560425,
				-0.27533799409866333
			]
		}
	],
	"materials":[
		{
			"doubleSided":true,
			"name":"Material.002",
			"normalTexture":{
				"index":0
			},
			"pbrMetallicRoughness":{
				"baseColorTexture":{
					"index":1
				},
				"metallicFactor":0,
				"metallicRoughnessTexture":{
					"index":2
				}
			}
		}
	],
	"meshes":[
		{
			"name":"Plane",
			"primitives":[
				{
					"attributes":{
						"POSITION":0,
						"NORMAL":1,
						"TEXCOORD_0":2
					},
					"indices":3,
					"material":0
				}
			]
		}
	],
	"textures":[
		{
			"sampler":0,
			"source":0
		},
		{
			"sampler":0,
			"source":1
		},
		{
			"sampler":0,
			"source":2
		}
	],
	"images":[
		{
			"mimeType":"image/png",
			"name":"QuartziteDenali002_NRM_8K_METALNESS",
			"uri":"QuartziteDenali002_NRM_8K_METALNESS.png"
		},
		{
			"mimeType":"image/png",
			"name":"QuartziteDenali002_COL_8K_METALNESS",
			"uri":"QuartziteDenali002_COL_8K_METALNESS.png"
		},
		{
			"mimeType":"image/png",
			"name":"QuartziteDenali002_ROUGHNESS_8K_METALNESS",
			"uri":"QuartziteDenali002_ROUGHNESS_8K_METALNESS.png"
		}
	],
	"accessors":[
		{
			"bufferView":0,
			"componentType":5126,
			"count":4,
			"max":[
				0.16677382588386536,
				0,
				0.16654594242572784
			],
			"min":[
				-0.16677482426166534,
				-0.0030636535957455635,
				-0.16677320003509521
			],
			"type":"VEC3"
		},
		{
			"bufferView":1,
			"componentType":5126,
			"count":4,
			"type":"VEC3"
		},
		{
			"bufferView":2,
			"componentType":5126,
			"count":4,
			"type":"VEC2"
		},
		{
			"bufferView":3,
			"componentType":5123,
			"count":6,
			"type":"SCALAR"
		}
	],
	"bufferViews":[
		{
			"buffer":0,
			"byteLength":48,
			"byteOffset":0,
			"target":34962
		},
		{
			"buffer":0,
			"byteLength":48,
			"byteOffset":48,
			"target":34962
		},
		{
			"buffer":0,
			"byteLength":32,
			"byteOffset":96,
			"target":34962
		},
		{
			"buffer":0,
			"byteLength":12,
			"byteOffset":128,
			"target":34963
		}
	],
	"samplers":[
		{
			"magFilter":9729,
			"minFilter":9987
		}
	],
	"buffers":[
		{
			"byteLength":140,
			"uri":"counter-042524-01.bin"
		}
	]
}
