{
	"asset":{
		"generator":"Khronos glTF Blender I/O v4.0.44",
		"version":"2.0"
	},
	"scene":0,
	"scenes":[
		{
			"name":"Scene",
			"nodes":[
				0
			]
		}
	],
	"nodes":[
		{
			"mesh":0,
			"name":"bear-sp22",
			"rotation":[
				0.5,
				0.5,
				-0.4999999403953552,
				0.5000000596046448
			]
		}
	],
	"materials":[
		{
			"doubleSided":true,
			"name":"TCom_SolarCells",
			"pbrMetallicRoughness":{}
		}
	],
	"meshes":[
		{
			"name":"bear-sp22",
			"primitives":[
				{
					"attributes":{
						"POSITION":0,
						"NORMAL":1,
						"TEXCOORD_0":2
					},
					"indices":3,
					"material":0
				}
			]
		}
	],
	"accessors":[
		{
			"bufferView":0,
			"componentType":5126,
			"count":4362,
			"max":[
				5.818563938140869,
				6.985897064208984,
				0.24733999371528625
			],
			"min":[
				-8.345017433166504,
				-3.6699209213256836,
				-17.667251586914062
			],
			"type":"VEC3"
		},
		{
			"bufferView":1,
			"componentType":5126,
			"count":4362,
			"type":"VEC3"
		},
		{
			"bufferView":2,
			"componentType":5126,
			"count":4362,
			"type":"VEC2"
		},
		{
			"bufferView":3,
			"componentType":5123,
			"count":14520,
			"type":"SCALAR"
		}
	],
	"bufferViews":[
		{
			"buffer":0,
			"byteLength":52344,
			"byteOffset":0,
			"target":34962
		},
		{
			"buffer":0,
			"byteLength":52344,
			"byteOffset":52344,
			"target":34962
		},
		{
			"buffer":0,
			"byteLength":34896,
			"byteOffset":104688,
			"target":34962
		},
		{
			"buffer":0,
			"byteLength":29040,
			"byteOffset":139584,
			"target":34963
		}
	],
	"buffers":[
		{
			"byteLength":168624,
			"uri":"bear-1.bin"
		}
	]
}
