{
    "asset" : {
        "generator" : "Khronos glTF Blender I/O v3.2.43",
        "version" : "2.0"
    },
    "scene" : 0,
    "scenes" : [
        {
            "name" : "Scene",
            "nodes" : [
                0
            ]
        }
    ],
    "nodes" : [
        {
            "mesh" : 0,
            "name" : "Circle.002",
            "rotation" : [
                0,
                -0.9990405440330505,
                0,
                0.04379685968160629
            ],
            "scale" : [
                4.999374866485596,
                4.999373912811279,
                4.999374866485596
            ]
        }
    ],
    "materials" : [
        {
            "doubleSided" : true,
            "name" : "Material.001",
            "pbrMetallicRoughness" : {
                "baseColorTexture" : {
                    "index" : 0
                },
                "metallicFactor" : 0,
                "roughnessFactor" : 0.5
            }
        }
    ],
    "meshes" : [
        {
            "extras" : {
                "targetNames" : [
                    "Key 1"
                ]
            },
            "name" : "Circle.006",
            "primitives" : [
                {
                    "attributes" : {
                        "POSITION" : 0,
                        "NORMAL" : 1,
                        "TEXCOORD_0" : 2
                    },
                    "indices" : 3,
                    "material" : 0,
                    "targets" : [
                        {
                            "POSITION" : 4,
                            "NORMAL" : 5
                        }
                    ]
                }
            ],
            "weights" : [
                1
            ]
        }
    ],
    "textures" : [
        {
            "sampler" : 0,
            "source" : 0
        }
    ],
    "images" : [
        {
            "mimeType" : "image/png",
            "name" : "light-magenta",
            "uri" : "light-magenta.png"
        }
    ],
    "accessors" : [
        {
            "bufferView" : 0,
            "componentType" : 5126,
            "count" : 665,
            "max" : [
                0.5337012410163879,
                0.13126429915428162,
                -0.1360587626695633
            ],
            "min" : [
                -0.5206621885299683,
                0,
                -1.2744402885437012
            ],
            "type" : "VEC3"
        },
        {
            "bufferView" : 1,
            "componentType" : 5126,
            "count" : 665,
            "type" : "VEC3"
        },
        {
            "bufferView" : 2,
            "componentType" : 5126,
            "count" : 665,
            "type" : "VEC2"
        },
        {
            "bufferView" : 3,
            "componentType" : 5123,
            "count" : 939,
            "type" : "SCALAR"
        },
        {
            "bufferView" : 4,
            "componentType" : 5126,
            "count" : 665,
            "max" : [
                0,
                0,
                0
            ],
            "min" : [
                0,
                0,
                0
            ],
            "type" : "VEC3"
        },
        {
            "bufferView" : 5,
            "componentType" : 5126,
            "count" : 665,
            "type" : "VEC3"
        }
    ],
    "bufferViews" : [
        {
            "buffer" : 0,
            "byteLength" : 7980,
            "byteOffset" : 0
        },
        {
            "buffer" : 0,
            "byteLength" : 7980,
            "byteOffset" : 7980
        },
        {
            "buffer" : 0,
            "byteLength" : 5320,
            "byteOffset" : 15960
        },
        {
            "buffer" : 0,
            "byteLength" : 1878,
            "byteOffset" : 21280
        },
        {
            "buffer" : 0,
            "byteLength" : 7980,
            "byteOffset" : 23160
        },
        {
            "buffer" : 0,
            "byteLength" : 7980,
            "byteOffset" : 31140
        }
    ],
    "samplers" : [
        {
            "magFilter" : 9729,
            "minFilter" : 9987
        }
    ],
    "buffers" : [
        {
            "byteLength" : 39120,
            "uri" : "swipe-attack.bin"
        }
    ]
}
