{
	"asset":{
		"generator":"Khronos glTF Blender I/O v4.1.63",
		"version":"2.0"
	},
	"scene":0,
	"scenes":[
		{
			"name":"Scene",
			"nodes":[
				2
			]
		}
	],
	"nodes":[
		{
			"name":"Bone",
			"rotation":[
				-0.43411633372306824,
				0.5581603646278381,
				0.5581603646278381,
				0.43411633372306824
			]
		},
		{
			"mesh":0,
			"name":"Circle.004",
			"skin":0
		},
		{
			"children":[
				1,
				0
			],
			"name":"Armature"
		}
	],
	"animations":[
		{
			"channels":[
				{
					"sampler":0,
					"target":{
						"node":0,
						"path":"translation"
					}
				},
				{
					"sampler":1,
					"target":{
						"node":0,
						"path":"rotation"
					}
				},
				{
					"sampler":2,
					"target":{
						"node":0,
						"path":"scale"
					}
				}
			],
			"name":"swipe-animation",
			"samplers":[
				{
					"input":9,
					"interpolation":"STEP",
					"output":10
				},
				{
					"input":11,
					"interpolation":"LINEAR",
					"output":12
				},
				{
					"input":9,
					"interpolation":"STEP",
					"output":13
				}
			]
		}
	],
	"materials":[
		{
			"doubleSided":true,
			"name":"Material.001",
			"pbrMetallicRoughness":{
				"baseColorTexture":{
					"index":0
				},
				"metallicFactor":0,
				"roughnessFactor":0.5
			}
		}
	],
	"meshes":[
		{
			"extras":{
				"targetNames":[
					"Key 1"
				]
			},
			"name":"Circle.011",
			"primitives":[
				{
					"attributes":{
						"POSITION":0,
						"NORMAL":1,
						"TEXCOORD_0":2,
						"JOINTS_0":3,
						"WEIGHTS_0":4
					},
					"indices":5,
					"material":0,
					"targets":[
						{
							"POSITION":6,
							"NORMAL":7
						}
					]
				}
			],
			"weights":[
				1
			]
		}
	],
	"textures":[
		{
			"sampler":0,
			"source":0
		}
	],
	"images":[
		{
			"mimeType":"image/png",
			"name":"swipe-color",
			"uri":"swipe-color.png"
		}
	],
	"skins":[
		{
			"inverseBindMatrices":8,
			"joints":[
				0
			],
			"name":"Armature"
		}
	],
	"accessors":[
		{
			"bufferView":0,
			"componentType":5126,
			"count":520,
			"max":[
				-0.5244873762130737,
				0.506302535533905,
				3.029707193374634
			],
			"min":[
				-4.95627498626709,
				0.01963190548121929,
				-1.1285756826400757
			],
			"type":"VEC3"
		},
		{
			"bufferView":1,
			"componentType":5126,
			"count":520,
			"type":"VEC3"
		},
		{
			"bufferView":2,
			"componentType":5126,
			"count":520,
			"type":"VEC2"
		},
		{
			"bufferView":3,
			"componentType":5121,
			"count":520,
			"type":"VEC4"
		},
		{
			"bufferView":4,
			"componentType":5126,
			"count":520,
			"type":"VEC4"
		},
		{
			"bufferView":5,
			"componentType":5123,
			"count":738,
			"type":"SCALAR"
		},
		{
			"componentType":5126,
			"count":520,
			"max":[
				0,
				0,
				0
			],
			"min":[
				0,
				0,
				0
			],
			"sparse":{
				"count":1,
				"indices":{
					"bufferView":6,
					"componentType":5121
				},
				"values":{
					"bufferView":7
				}
			},
			"type":"VEC3"
		},
		{
			"bufferView":8,
			"componentType":5126,
			"count":520,
			"type":"VEC3"
		},
		{
			"bufferView":9,
			"componentType":5126,
			"count":1,
			"type":"MAT4"
		},
		{
			"bufferView":10,
			"componentType":5126,
			"count":2,
			"max":[
				1
			],
			"min":[
				0
			],
			"type":"SCALAR"
		},
		{
			"bufferView":11,
			"componentType":5126,
			"count":2,
			"type":"VEC3"
		},
		{
			"bufferView":12,
			"componentType":5126,
			"count":31,
			"max":[
				1
			],
			"min":[
				0
			],
			"type":"SCALAR"
		},
		{
			"bufferView":13,
			"componentType":5126,
			"count":31,
			"type":"VEC4"
		},
		{
			"bufferView":14,
			"componentType":5126,
			"count":2,
			"type":"VEC3"
		}
	],
	"bufferViews":[
		{
			"buffer":0,
			"byteLength":6240,
			"byteOffset":0,
			"target":34962
		},
		{
			"buffer":0,
			"byteLength":6240,
			"byteOffset":6240,
			"target":34962
		},
		{
			"buffer":0,
			"byteLength":4160,
			"byteOffset":12480,
			"target":34962
		},
		{
			"buffer":0,
			"byteLength":2080,
			"byteOffset":16640,
			"target":34962
		},
		{
			"buffer":0,
			"byteLength":8320,
			"byteOffset":18720,
			"target":34962
		},
		{
			"buffer":0,
			"byteLength":1476,
			"byteOffset":27040,
			"target":34963
		},
		{
			"buffer":0,
			"byteLength":1,
			"byteOffset":28516
		},
		{
			"buffer":0,
			"byteLength":12,
			"byteOffset":28520
		},
		{
			"buffer":0,
			"byteLength":6240,
			"byteOffset":28532,
			"target":34962
		},
		{
			"buffer":0,
			"byteLength":64,
			"byteOffset":34772
		},
		{
			"buffer":0,
			"byteLength":8,
			"byteOffset":34836
		},
		{
			"buffer":0,
			"byteLength":24,
			"byteOffset":34844
		},
		{
			"buffer":0,
			"byteLength":124,
			"byteOffset":34868
		},
		{
			"buffer":0,
			"byteLength":496,
			"byteOffset":34992
		},
		{
			"buffer":0,
			"byteLength":24,
			"byteOffset":35488
		}
	],
	"samplers":[
		{
			"magFilter":9729,
			"minFilter":9987
		}
	],
	"buffers":[
		{
			"byteLength":35512,
			"uri":"swipe-attack.bin"
		}
	]
}
