{
	"asset":{
		"generator":"Khronos glTF Blender I/O v4.1.63",
		"version":"2.0"
	},
	"scene":0,
	"scenes":[
		{
			"name":"Scene",
			"nodes":[
				0
			]
		}
	],
	"nodes":[
		{
			"mesh":0,
			"name":"Circle",
			"rotation":[
				0.7071068286895752,
				0,
				0,
				0.7071068286895752
			],
			"scale":[
				1,
				1,
				0.8760169744491577
			]
		}
	],
	"materials":[
		{
			"doubleSided":true,
			"name":"Material.002",
			"pbrMetallicRoughness":{
				"baseColorTexture":{
					"index":0
				},
				"metallicFactor":0,
				"roughnessFactor":0.5
			}
		}
	],
	"meshes":[
		{
			"name":"Circle",
			"primitives":[
				{
					"attributes":{
						"POSITION":0,
						"NORMAL":1,
						"TEXCOORD_0":2
					},
					"indices":3,
					"material":0
				}
			]
		}
	],
	"textures":[
		{
			"sampler":0,
			"source":0
		}
	],
	"images":[
		{
			"mimeType":"image/png",
			"name":"note-color",
			"uri":"note-color.png"
		}
	],
	"accessors":[
		{
			"bufferView":0,
			"componentType":5126,
			"count":336,
			"max":[
				0.2518249452114105,
				0.06362060457468033,
				0.10000000149011612
			],
			"min":[
				-0.10000000149011612,
				0,
				-0.6256991028785706
			],
			"type":"VEC3"
		},
		{
			"bufferView":1,
			"componentType":5126,
			"count":336,
			"type":"VEC3"
		},
		{
			"bufferView":2,
			"componentType":5126,
			"count":336,
			"type":"VEC2"
		},
		{
			"bufferView":3,
			"componentType":5123,
			"count":660,
			"type":"SCALAR"
		}
	],
	"bufferViews":[
		{
			"buffer":0,
			"byteLength":4032,
			"byteOffset":0,
			"target":34962
		},
		{
			"buffer":0,
			"byteLength":4032,
			"byteOffset":4032,
			"target":34962
		},
		{
			"buffer":0,
			"byteLength":2688,
			"byteOffset":8064,
			"target":34962
		},
		{
			"buffer":0,
			"byteLength":1320,
			"byteOffset":10752,
			"target":34963
		}
	],
	"samplers":[
		{
			"magFilter":9729,
			"minFilter":9987
		}
	],
	"buffers":[
		{
			"byteLength":12072,
			"uri":"player-note-attack.bin"
		}
	]
}
